<svg width="18" height="16" viewBox="0 0 18 16" fill="none" xmlns="http://www.w3.org/2000/svg">
<path fill-rule="evenodd" clip-rule="evenodd" d="M7.50003 1.8125C5.94673 1.8125 4.68753 3.0717 4.68753 4.625C4.68753 6.1783 5.94673 7.4375 7.50003 7.4375C9.05333 7.4375 10.3125 6.1783 10.3125 4.625C10.3125 3.0717 9.05333 1.8125 7.50003 1.8125ZM3.56253 4.625C3.56253 2.45038 5.32541 0.6875 7.50003 0.6875C9.67465 0.6875 11.4375 2.45038 11.4375 4.625C11.4375 6.79962 9.67465 8.5625 7.50003 8.5625C5.32541 8.5625 3.56253 6.79962 3.56253 4.625ZM5.51777 10.0625C5.55304 10.0625 5.58879 10.0625 5.62503 10.0625H9.00003C9.31069 10.0625 9.56253 10.3143 9.56253 10.625C9.56253 10.9357 9.31069 11.1875 9.00003 11.1875H5.62503C4.53743 11.1875 4.11833 11.1936 3.79246 11.2925C3.01343 11.5288 2.40381 12.1384 2.16749 12.9174C2.06864 13.2433 2.06253 13.6624 2.06253 14.75C2.06253 15.0607 1.81069 15.3125 1.50003 15.3125C1.18937 15.3125 0.937531 15.0607 0.937531 14.75C0.937531 14.7138 0.937523 14.678 0.937515 14.6427C0.937306 13.6992 0.937173 13.0977 1.09093 12.5909C1.43632 11.4523 2.32731 10.5613 3.46589 10.2159C3.97276 10.0621 4.57419 10.0623 5.51777 10.0625ZM16.8978 10.6023C17.1174 10.8219 17.1174 11.1781 16.8978 11.3977L13.8978 14.3977C13.6781 14.6174 13.322 14.6174 13.1023 14.3977L11.6023 12.8977C11.3826 12.6781 11.3826 12.3219 11.6023 12.1023C11.822 11.8826 12.1781 11.8826 12.3978 12.1023L13.5 13.2045L16.1023 10.6023C16.322 10.3826 16.6781 10.3826 16.8978 10.6023Z" fill="#03989E"/>
</svg>
