<svg width="30" height="30" viewBox="0 0 30 30" fill="none" xmlns="http://www.w3.org/2000/svg">
<rect x="0.25" y="0.25" width="29.5" height="29.5" rx="14.75" fill="#B2EDF0" fill-opacity="0.12"/>
<rect x="0.25" y="0.25" width="29.5" height="29.5" rx="14.75" stroke="#F1F3F7" stroke-width="0.5"/>
<path d="M15.0002 10.3335C15.001 10.0669 14.9485 9.80277 14.8457 9.55673C14.7429 9.31069 14.592 9.08768 14.4017 8.90083C14.2115 8.71397 13.9858 8.56704 13.738 8.46868C13.4901 8.37032 13.2251 8.32251 12.9585 8.32807C12.692 8.33363 12.4292 8.39244 12.1856 8.50104C11.9421 8.60964 11.7228 8.76585 11.5405 8.96047C11.3582 9.15508 11.2167 9.38419 11.1242 9.6343C11.0318 9.88441 10.9903 10.1505 11.0022 10.4169C10.6103 10.5176 10.2465 10.7062 9.93837 10.9684C9.63019 11.2306 9.38571 11.5594 9.22344 11.9301C9.06118 12.3007 8.98539 12.7035 9.0018 13.1077C9.01822 13.512 9.12643 13.9073 9.31821 14.2635C8.981 14.5375 8.71583 14.8897 8.54577 15.2895C8.37571 15.6893 8.30592 16.1246 8.34245 16.5575C8.37899 16.9905 8.52076 17.4079 8.75542 17.7735C8.99008 18.1392 9.31052 18.442 9.68888 18.6555C9.64216 19.017 9.67004 19.3843 9.7708 19.7345C9.87157 20.0848 10.0431 20.4108 10.2747 20.6922C10.5064 20.9736 10.7933 21.2045 11.1177 21.3707C11.4421 21.5369 11.7971 21.6348 12.1609 21.6584C12.5246 21.682 12.8893 21.6308 13.2325 21.5079C13.5756 21.3851 13.89 21.1931 14.1561 20.944C14.4221 20.6949 14.6343 20.3939 14.7795 20.0596C14.9247 19.7252 14.9998 19.3647 15.0002 19.0002V10.3335Z" stroke="#03989E" stroke-linecap="round" stroke-linejoin="round"/>
<path d="M13 15.6667C13.5597 15.4698 14.0485 15.1113 14.4044 14.6367C14.7604 14.162 14.9677 13.5924 15 13" stroke="#03989E" stroke-linecap="round" stroke-linejoin="round"/>
<path d="M11.002 10.4165C11.0151 10.739 11.1062 11.0535 11.2673 11.3332" stroke="#03989E" stroke-linecap="round" stroke-linejoin="round"/>
<path d="M9.31836 14.264C9.44032 14.1647 9.57083 14.0763 9.70836 14" stroke="#03989E" stroke-linecap="round" stroke-linejoin="round"/>
<path d="M10.9998 18.9998C10.5404 19 10.0887 18.8815 9.68848 18.6558" stroke="#03989E" stroke-linecap="round" stroke-linejoin="round"/>
<path d="M15 15.6665H17.6667" stroke="#03989E" stroke-linecap="round" stroke-linejoin="round"/>
<path d="M15 19H19C19.3536 19 19.6928 19.1405 19.9428 19.3905C20.1929 19.6406 20.3333 19.9797 20.3333 20.3333V21" stroke="#03989E" stroke-linecap="round" stroke-linejoin="round"/>
<path d="M15 12.3335H20.3333" stroke="#03989E" stroke-linecap="round" stroke-linejoin="round"/>
<path d="M17.667 12.3333V10.3333C17.667 9.97971 17.8075 9.64057 18.0575 9.39052C18.3076 9.14048 18.6467 9 19.0003 9" stroke="#03989E" stroke-linecap="round" stroke-linejoin="round"/>
<path d="M17.6663 16.0002C17.8504 16.0002 17.9997 15.8509 17.9997 15.6668C17.9997 15.4827 17.8504 15.3335 17.6663 15.3335C17.4822 15.3335 17.333 15.4827 17.333 15.6668C17.333 15.8509 17.4822 16.0002 17.6663 16.0002Z" stroke="#03989E" stroke-linecap="round" stroke-linejoin="round"/>
<path d="M19.0003 9.33317C19.1844 9.33317 19.3337 9.18393 19.3337 8.99984C19.3337 8.81574 19.1844 8.6665 19.0003 8.6665C18.8162 8.6665 18.667 8.81574 18.667 8.99984C18.667 9.18393 18.8162 9.33317 19.0003 9.33317Z" stroke="#03989E" stroke-linecap="round" stroke-linejoin="round"/>
<path d="M20.3333 21.3332C20.5174 21.3332 20.6667 21.1839 20.6667 20.9998C20.6667 20.8157 20.5174 20.6665 20.3333 20.6665C20.1492 20.6665 20 20.8157 20 20.9998C20 21.1839 20.1492 21.3332 20.3333 21.3332Z" stroke="#03989E" stroke-linecap="round" stroke-linejoin="round"/>
<path d="M20.3333 12.6667C20.5174 12.6667 20.6667 12.5174 20.6667 12.3333C20.6667 12.1492 20.5174 12 20.3333 12C20.1492 12 20 12.1492 20 12.3333C20 12.5174 20.1492 12.6667 20.3333 12.6667Z" stroke="#03989E" stroke-linecap="round" stroke-linejoin="round"/>
</svg>
