<svg width="30" height="31" viewBox="0 0 30 31" fill="none" xmlns="http://www.w3.org/2000/svg">
<rect x="0.25" y="0.821289" width="29.5" height="29.5" rx="14.75" fill="#B2EDF0" fill-opacity="0.12"/>
<rect x="0.25" y="0.821289" width="29.5" height="29.5" rx="14.75" stroke="#F1F3F7" stroke-width="0.5"/>
<path d="M11.6662 15.6777H20.3329C20.5097 15.6777 20.6793 15.748 20.8043 15.873C20.9293 15.998 20.9996 16.1676 20.9996 16.3444C20.9996 17.2285 20.6484 18.0763 20.0233 18.7014C19.3981 19.3265 18.5503 19.6777 17.6662 19.6777H17.2676C17.2081 19.6777 17.1497 19.6937 17.0984 19.7239C17.0471 19.7541 17.0049 19.7974 16.976 19.8495C16.9472 19.9015 16.9328 19.9603 16.9344 20.0198C16.9359 20.0793 16.9534 20.1373 16.9849 20.1877L18.0142 21.8344C18.0458 21.8849 18.0632 21.9428 18.0648 22.0023C18.0664 22.0618 18.052 22.1206 18.0231 22.1727C17.9943 22.2247 17.952 22.2681 17.9008 22.2983C17.8495 22.3285 17.7911 22.3444 17.7316 22.3444H10.6009C10.5414 22.3444 10.483 22.3285 10.4317 22.2983C10.3805 22.2681 10.3382 22.2247 10.3094 22.1727C10.2805 22.1206 10.2661 22.0618 10.2677 22.0023C10.2693 21.9428 10.2867 21.8849 10.3182 21.8344L11.6662 19.6777" stroke="#03989E" stroke-linecap="round" stroke-linejoin="round"/>
<path d="M12.3333 19.5715C11.4493 19.5715 10.6014 19.2203 9.97631 18.5951C9.35119 17.97 9 17.1222 9 16.2381V10.2381C9 9.8845 9.14048 9.54536 9.39052 9.29531C9.64057 9.04526 9.97971 8.90479 10.3333 8.90479H15.6667C16.0203 8.90479 16.3594 9.04526 16.6095 9.29531C16.8595 9.54536 17 9.8845 17 10.2381V15.5715" stroke="#03989E" stroke-linecap="round" stroke-linejoin="round"/>
</svg>
