<svg width="23" height="23" viewBox="0 0 23 23" fill="none" xmlns="http://www.w3.org/2000/svg">
<rect x="0.75" y="1.10718" width="21.5" height="21.5" rx="4.75" stroke="#A9ABB0" stroke-width="0.5"/>
<path fill-rule="evenodd" clip-rule="evenodd" d="M11.5 6.16968C11.7416 6.16968 11.9375 6.36555 11.9375 6.60718V13.7176L14.6906 10.9645C14.8615 10.7936 15.1385 10.7936 15.3094 10.9645C15.4802 11.1353 15.4802 11.4123 15.3094 11.5832L11.8094 15.0832C11.6385 15.2541 11.3615 15.2541 11.1906 15.0832L7.69064 11.5832C7.51979 11.4123 7.51979 11.1353 7.69064 10.9645C7.8615 10.7936 8.1385 10.7936 8.30936 10.9645L11.0625 13.7176V6.60718C11.0625 6.36555 11.2584 6.16968 11.5 6.16968ZM5.8125 17.1072C5.8125 16.8656 6.00838 16.6697 6.25 16.6697H16.75C16.9916 16.6697 17.1875 16.8656 17.1875 17.1072C17.1875 17.3488 16.9916 17.5447 16.75 17.5447H6.25C6.00838 17.5447 5.8125 17.3488 5.8125 17.1072Z" fill="#03989E"/>
</svg>
