<svg width="18" height="18" viewBox="0 0 18 18" fill="none" xmlns="http://www.w3.org/2000/svg">
<path d="M10.05 1.5H4.5C4.10218 1.5 3.72064 1.65804 3.43934 1.93934C3.15804 2.22064 3 2.60218 3 3V15C3 15.3978 3.15804 15.7794 3.43934 16.0607C3.72064 16.342 4.10218 16.5 4.5 16.5H13.5C13.8978 16.5 14.2794 16.342 14.5607 16.0607C14.842 15.7794 15 15.3978 15 15V9.45" stroke="#EB9466" stroke-linecap="round" stroke-linejoin="round"/>
<path d="M1.5 4.5H4.5" stroke="#EB9466" stroke-linecap="round" stroke-linejoin="round"/>
<path d="M1.5 7.5H4.5" stroke="#EB9466" stroke-linecap="round" stroke-linejoin="round"/>
<path d="M1.5 10.5H4.5" stroke="#EB9466" stroke-linecap="round" stroke-linejoin="round"/>
<path d="M1.5 13.5H4.5" stroke="#EB9466" stroke-linecap="round" stroke-linejoin="round"/>
<path d="M16.0335 4.21949C16.3322 3.92072 16.5001 3.51551 16.5001 3.09299C16.5001 2.67047 16.3322 2.26526 16.0335 1.96649C15.7347 1.66772 15.3295 1.49988 14.907 1.49988C14.4845 1.49988 14.0792 1.66772 13.7805 1.96649L10.023 5.72549C9.84467 5.90371 9.71415 6.12399 9.64348 6.36599L9.01573 8.51849C8.99691 8.58303 8.99578 8.65144 9.01246 8.71656C9.02915 8.78168 9.06303 8.84112 9.11057 8.88865C9.1581 8.93619 9.21754 8.97007 9.28266 8.98676C9.34779 9.00344 9.4162 9.00231 9.48073 8.98349L11.6332 8.35574C11.8752 8.28507 12.0955 8.15455 12.2737 7.97624L16.0335 4.21949Z" stroke="#EB9466" stroke-linecap="round" stroke-linejoin="round"/>
</svg>
