<svg width="18" height="12" viewBox="0 0 18 12" fill="none" xmlns="http://www.w3.org/2000/svg">
<path fill-rule="evenodd" clip-rule="evenodd" d="M0.875 1C0.875 0.654822 1.15482 0.375 1.5 0.375H16.5C16.8452 0.375 17.125 0.654822 17.125 1C17.125 1.34518 16.8452 1.625 16.5 1.625H1.5C1.15482 1.625 0.875 1.34518 0.875 1ZM3.375 6C3.375 5.65482 3.65482 5.375 4 5.375H14C14.3452 5.375 14.625 5.65482 14.625 6C14.625 6.34518 14.3452 6.625 14 6.625H4C3.65482 6.625 3.375 6.34518 3.375 6ZM5.875 11C5.875 10.6548 6.15482 10.375 6.5 10.375H11.5C11.8452 10.375 12.125 10.6548 12.125 11C12.125 11.3452 11.8452 11.625 11.5 11.625H6.5C6.15482 11.625 5.875 11.3452 5.875 11Z" fill="#03989E"/>
</svg>
