<svg width="19" height="16" viewBox="0 0 19 16" fill="none" xmlns="http://www.w3.org/2000/svg">
<path fill-rule="evenodd" clip-rule="evenodd" d="M4.64132 0.708374H14.3587C14.8038 0.708365 15.1754 0.708358 15.4789 0.733157C15.7955 0.759022 16.0927 0.814948 16.3737 0.958151C16.8049 1.17786 17.1555 1.52844 17.3752 1.95965C17.5184 2.2407 17.5744 2.53791 17.6002 2.85448C17.625 3.15801 17.625 3.52954 17.625 3.97466V10.8491C18.0075 11.0304 18.2968 11.372 18.4087 11.7893C18.4592 11.9781 18.4588 12.1889 18.4584 12.3911C18.4584 12.4089 18.4583 12.4268 18.4583 12.4445C18.4583 12.472 18.4584 12.4992 18.4584 12.5259C18.4587 12.9624 18.4589 13.2997 18.3803 13.5932C18.1684 14.384 17.5506 15.0017 16.7598 15.2136C16.4663 15.2923 16.1291 15.292 15.6925 15.2917C15.6658 15.2917 15.6386 15.2917 15.6111 15.2917H3.3889C3.36138 15.2917 3.33424 15.2917 3.30748 15.2917C2.87096 15.292 2.53368 15.2923 2.24022 15.2136C1.44938 15.0017 0.831668 14.384 0.619764 13.5932C0.541131 13.2997 0.541354 12.9624 0.541642 12.5259C0.541659 12.4992 0.541677 12.472 0.541677 12.4445C0.541677 12.4268 0.541642 12.4089 0.541606 12.3911C0.541204 12.1889 0.540784 11.978 0.591369 11.7893C0.703178 11.372 0.992528 11.0304 1.37501 10.8491L1.37501 3.97468C1.375 3.52955 1.37499 3.15801 1.39979 2.85448C1.42566 2.53791 1.48158 2.2407 1.62479 1.95965C1.8445 1.52844 2.19508 1.17786 2.62628 0.958151C2.90733 0.814948 3.20455 0.759022 3.52112 0.733157C3.82465 0.708358 4.19619 0.708365 4.64132 0.708374ZM2.62501 10.7084H16.375V4.00004C16.375 3.52302 16.3745 3.20284 16.3544 2.95627C16.3348 2.717 16.2999 2.6026 16.2615 2.52713C16.1616 2.33113 16.0023 2.17178 15.8063 2.07191C15.7308 2.03346 15.6164 1.99856 15.3771 1.97901C15.1305 1.95886 14.8104 1.95837 14.3333 1.95837H4.66668C4.18965 1.95837 3.86947 1.95886 3.62291 1.97901C3.38364 1.99856 3.26924 2.03346 3.19377 2.07191C2.99777 2.17178 2.83841 2.33113 2.73855 2.52713C2.70009 2.6026 2.66519 2.717 2.64564 2.95627C2.6255 3.20284 2.62501 3.52302 2.62501 4.00004V10.7084ZM2.0024 11.9613C1.94547 11.9639 1.93713 11.9679 1.94609 11.9655C1.87487 11.9846 1.8191 12.0398 1.79933 12.1108C1.79866 12.1148 1.79631 12.1312 1.79458 12.1691C1.79183 12.2294 1.79168 12.3097 1.79168 12.4445C1.79168 13.0014 1.79705 13.1572 1.82717 13.2696C1.92349 13.6291 2.20427 13.9099 2.56374 14.0062C2.67617 14.0363 2.83201 14.0417 3.3889 14.0417H15.6111C16.168 14.0417 16.3238 14.0363 16.4363 14.0062C16.7958 13.9099 17.0765 13.6291 17.1729 13.2696C17.203 13.1572 17.2083 13.0014 17.2083 12.4445C17.2083 12.3097 17.2082 12.2294 17.2054 12.1691C17.2037 12.1312 17.2014 12.1148 17.2007 12.1108C17.1809 12.0398 17.1251 11.9846 17.0539 11.9655C17.0629 11.9679 17.0546 11.9639 16.9976 11.9613C16.9373 11.9585 16.8571 11.9584 16.7222 11.9584H2.27779C2.14296 11.9584 2.06269 11.9585 2.0024 11.9613Z" fill="#4A4A68"/>
</svg>
