<svg width="30" height="31" viewBox="0 0 30 31" fill="none" xmlns="http://www.w3.org/2000/svg">
<rect x="0.25" y="0.535645" width="29.5" height="29.5" rx="14.75" fill="#B2EDF0" fill-opacity="0.12"/>
<rect x="0.25" y="0.535645" width="29.5" height="29.5" rx="14.75" stroke="#F1F3F7" stroke-width="0.5"/>
<path d="M9.66699 21.9525H19.0003C19.3539 21.9525 19.6931 21.812 19.9431 21.5619C20.1932 21.3119 20.3337 20.9728 20.3337 20.6191V11.9525L17.0003 8.61914H11.0003C10.6467 8.61914 10.3076 8.75962 10.0575 9.00966C9.80747 9.25971 9.66699 9.59885 9.66699 9.95247V11.2858" stroke="#03989E" stroke-linecap="round" stroke-linejoin="round"/>
<path d="M16.333 8.61914V11.2858C16.333 11.6394 16.4735 11.9786 16.7235 12.2286C16.9736 12.4787 17.3127 12.6191 17.6663 12.6191H20.333" stroke="#03989E" stroke-linecap="round" stroke-linejoin="round"/>
<path d="M13.8598 14.4189C13.6321 14.1916 13.3418 14.0371 13.0259 13.9754C12.7101 13.9137 12.383 13.9474 12.0864 14.0723C11.8931 14.1523 11.7131 14.2723 11.5664 14.4256L11.3331 14.6523L11.0998 14.4256C10.8734 14.1984 10.5846 14.0436 10.2701 13.9807C9.95559 13.9178 9.62949 13.9497 9.33312 14.0723C9.13312 14.1523 8.95978 14.2723 8.80645 14.4256C8.17312 15.0523 8.13978 16.1123 8.93978 16.9189L11.3331 19.2856L13.7331 16.9189C14.5331 16.1123 14.4931 15.0523 13.8598 14.4256V14.4189Z" stroke="#03989E" stroke-linecap="round" stroke-linejoin="round"/>
</svg>
