<svg width="18" height="18" viewBox="0 0 18 18" fill="none" xmlns="http://www.w3.org/2000/svg">
<path fill-rule="evenodd" clip-rule="evenodd" d="M14.0911 2.15699C13.7056 2.12549 13.2104 2.125 12.5 2.125H11.5C11.1548 2.125 10.875 1.84518 10.875 1.5C10.875 1.15482 11.1548 0.875 11.5 0.875L12.5268 0.875C13.2041 0.874994 13.7505 0.874989 14.1929 0.911137C14.6484 0.948355 15.0485 1.02699 15.4187 1.21561C16.0067 1.51521 16.4848 1.99327 16.7844 2.58128C16.973 2.95146 17.0516 3.35158 17.0889 3.80711C17.125 4.24953 17.125 4.79587 17.125 5.47323V12.5268C17.125 13.2041 17.125 13.7505 17.0889 14.1929C17.0516 14.6484 16.973 15.0485 16.7844 15.4187C16.4848 16.0067 16.0067 16.4848 15.4187 16.7844C15.0485 16.973 14.6484 17.0516 14.1929 17.0889C13.7505 17.125 13.2041 17.125 12.5268 17.125H11.5C11.1548 17.125 10.875 16.8452 10.875 16.5C10.875 16.1548 11.1548 15.875 11.5 15.875H12.5C13.2104 15.875 13.7056 15.8745 14.0911 15.843C14.4693 15.8121 14.6866 15.7545 14.8512 15.6706C15.204 15.4909 15.4909 15.204 15.6706 14.8512C15.7545 14.6866 15.8121 14.4693 15.843 14.0911C15.8745 13.7056 15.875 13.2104 15.875 12.5V5.5C15.875 4.78962 15.8745 4.29443 15.843 3.9089C15.8121 3.53067 15.7545 3.31337 15.6706 3.14877C15.4909 2.79596 15.204 2.50913 14.8512 2.32936C14.6866 2.2455 14.4693 2.18789 14.0911 2.15699ZM6.89139 4.39139C7.13547 4.14731 7.5312 4.14731 7.77528 4.39139L11.9419 8.55806C12.186 8.80214 12.186 9.19786 11.9419 9.44194L7.77528 13.6086C7.5312 13.8527 7.13547 13.8527 6.89139 13.6086C6.64731 13.3645 6.64731 12.9688 6.89139 12.7247L9.99112 9.625L1.5 9.625C1.15482 9.625 0.875 9.34518 0.875 9C0.875 8.65482 1.15482 8.375 1.5 8.375L9.99112 8.375L6.89139 5.27528C6.64731 5.0312 6.64731 4.63547 6.89139 4.39139Z" fill="#4A4A68"/>
</svg>
