<svg width="16" height="14" viewBox="0 0 16 14" fill="none" xmlns="http://www.w3.org/2000/svg">
<path fill-rule="evenodd" clip-rule="evenodd" d="M6.66661 1.5C5.2859 1.5 4.16661 2.61929 4.16661 4C4.16661 5.38071 5.2859 6.5 6.66661 6.5C8.04732 6.5 9.16661 5.38071 9.16661 4C9.16661 2.61929 8.04732 1.5 6.66661 1.5ZM3.16661 4C3.16661 2.067 4.73362 0.5 6.66661 0.5C8.59961 0.5 10.1666 2.067 10.1666 4C10.1666 5.933 8.59961 7.5 6.66661 7.5C4.73362 7.5 3.16661 5.933 3.16661 4ZM12.6666 8.5C12.9428 8.5 13.1666 8.72386 13.1666 9V10.5H14.6666C14.9428 10.5 15.1666 10.7239 15.1666 11C15.1666 11.2761 14.9428 11.5 14.6666 11.5H13.1666V13C13.1666 13.2761 12.9428 13.5 12.6666 13.5C12.3905 13.5 12.1666 13.2761 12.1666 13V11.5H10.6666C10.3905 11.5 10.1666 11.2761 10.1666 11C10.1666 10.7239 10.3905 10.5 10.6666 10.5H12.1666V9C12.1666 8.72386 12.3905 8.5 12.6666 8.5ZM4.9046 8.83332C4.93596 8.83333 4.96773 8.83333 4.99995 8.83333H7.99995C8.27609 8.83333 8.49995 9.05719 8.49995 9.33333C8.49995 9.60948 8.27609 9.83333 7.99995 9.83333H4.99995C4.03319 9.83333 3.66066 9.83876 3.37099 9.92663C2.67853 10.1367 2.13663 10.6786 1.92658 11.371C1.83871 11.6607 1.83328 12.0332 1.83328 13C1.83328 13.2761 1.60942 13.5 1.33328 13.5C1.05714 13.5 0.833279 13.2761 0.833279 13C0.833279 12.9678 0.833272 12.936 0.833265 12.9047C0.833079 12.0659 0.832961 11.5313 0.969636 11.0808C1.27664 10.0687 2.06864 9.2767 3.08071 8.96969C3.53126 8.83302 4.06586 8.83313 4.9046 8.83332Z" fill="white"/>
</svg>
