<svg width="18" height="15" viewBox="0 0 18 15" fill="none" xmlns="http://www.w3.org/2000/svg">
<path fill-rule="evenodd" clip-rule="evenodd" d="M7.12502 1.8125C5.57172 1.8125 4.31252 3.0717 4.31252 4.625C4.31252 6.1783 5.57172 7.4375 7.12502 7.4375C8.67832 7.4375 9.93752 6.1783 9.93752 4.625C9.93752 3.0717 8.67832 1.8125 7.12502 1.8125ZM3.18752 4.625C3.18752 2.45038 4.9504 0.6875 7.12502 0.6875C9.29964 0.6875 11.0625 2.45038 11.0625 4.625C11.0625 6.79962 9.29964 8.5625 7.12502 8.5625C4.9504 8.5625 3.18752 6.79962 3.18752 4.625ZM11.4963 1.35049C11.6346 1.07229 11.9722 0.958839 12.2504 1.09709C13.5455 1.74072 14.4375 3.07817 14.4375 4.625C14.4375 6.17183 13.5455 7.50928 12.2504 8.15291C11.9722 8.29116 11.6346 8.17771 11.4963 7.89951C11.358 7.62131 11.4715 7.28371 11.7497 7.14545C12.6771 6.68456 13.3125 5.72846 13.3125 4.625C13.3125 3.52154 12.6771 2.56544 11.7497 2.10455C11.4715 1.96629 11.358 1.62869 11.4963 1.35049ZM7.12502 11.5625C5.15119 11.5625 3.32047 12.5935 1.94233 14.3475C1.7504 14.5918 1.39679 14.6342 1.15251 14.4423C0.908225 14.2504 0.865786 13.8968 1.05772 13.6525C2.59931 11.6904 4.73263 10.4375 7.12502 10.4375C9.51742 10.4375 11.6507 11.6904 13.1923 13.6525C13.3843 13.8968 13.3418 14.2504 13.0975 14.4423C12.8533 14.6342 12.4996 14.5918 12.3077 14.3475C10.9296 12.5935 9.09886 11.5625 7.12502 11.5625ZM12.9876 11.3429C13.1156 11.0599 13.4489 10.9342 13.7319 11.0623C14.9592 11.6177 16.049 12.5155 16.9423 13.6525C17.1343 13.8968 17.0918 14.2504 16.8475 14.4423C16.6033 14.6342 16.2496 14.5918 16.0577 14.3475C15.2598 13.332 14.3081 12.5579 13.2681 12.0873C12.9851 11.9592 12.8595 11.6259 12.9876 11.3429Z" fill="#03989E"/>
</svg>
